<svg xmlns="http://www.w3.org/2000/svg" xml:space="preserve" width="160mm" height="120mm"
    viewBox="0 0 160 120"><path d="M100.171 64.757c-5.16-5.288-9.693-10.127-10.071-10.752-2.092-3.457-2.36-7.827-.71-11.541.867-1.955 1.333-2.483 10.53-11.934l9.624-9.89 9.184 9.345c5.154 5.243 9.626 10.028 10.191 10.903 2.176 3.37 2.509 8.164.82 11.8-.814 1.75-1.686 2.728-10.536 11.796l-9.649 9.888z" style="fill:#5bd3d4;fill-opacity:1;stroke-width:1.01994" transform="translate(-29.432 -20.64)"/><path d="M99.797 130.883c-6.73-6.92-9.699-10.161-10.206-11.142-2.032-3.93-1.986-8.456.122-12.022.504-.853 4.536-5.188 10.232-11l9.4-9.593 9.29 9.481c5.11 5.215 9.638 10.042 10.065 10.728 1.654 2.661 2.24 6.45 1.46 9.427-.847 3.235-1.367 3.881-11.354 14.12l-9.518 9.759z" style="fill:#d3a537;fill-opacity:1;stroke-width:1.01994" transform="translate(-29.432 -20.64)"/><path d="M77.058 53.891 54.663 76.732C42.346 89.294 31.921 100.08 31.495 100.7c-2.466 3.593-2.738 8.352-.723 12.629.414.88 3.379 4.114 10.203 11.13l9.62 9.892 22.759-23.252C94.178 89.824 96.18 87.701 96.909 86.118c1.673-3.634 1.668-7.366-.013-10.948-.735-1.566-1.942-2.912-10.335-11.525Z" style="fill:#e51984;fill-opacity:1;stroke-width:1.01994" transform="translate(-29.432 -20.64)"/><path d="m168.33 26.91-22.394 22.842c-12.317 12.562-22.743 23.347-23.169 23.968-2.465 3.593-2.738 8.352-.723 12.628.414.88 3.38 4.114 10.203 11.13l9.62 9.892 22.759-23.251c20.824-21.275 22.827-23.398 23.556-24.982 1.672-3.633 1.667-7.365-.014-10.948-.734-1.565-1.942-2.911-10.335-11.525z" style="fill:#2a83f0;fill-opacity:1;stroke-width:1.01994" transform="translate(-29.432 -20.64)"/></svg>